HIERARCHY
ROOT Hips
{
 OFFSET 0.000000 0.000000 0.000000
 CHANNELS 6 Xposition Yposition Zposition Yrotation Xrotation Zrotation
 JOINT Chest
 {
  OFFSET 0.000000 9.588913 -0.003946
  CHANNELS 3 Yrotation Xrotation Zrotation
  JOINT Chest2
  {
   OFFSET 0.000000 9.541882 0.008053
   CHANNELS 3 Yrotation Xrotation Zrotation
   JOINT Chest3
   {
    OFFSET 0.000000 9.501360 0.000000
    CHANNELS 3 Yrotation Xrotation Zrotation
    JOINT Chest4
    {
     OFFSET 0.000000 9.491660 0.000000
     CHANNELS 3 Yrotation Xrotation Zrotation
     JOINT Neck
     {
      OFFSET 0.000000 14.331917 0.000000
      CHANNELS 3 Yrotation Xrotation Zrotation
      JOINT Head
      {
       OFFSET 0.000000 8.884799 0.017034
       CHANNELS 3 Yrotation Xrotation Zrotation
       End Site
       {
        OFFSET 0.000000 16.896195 0.008993
       }
      }
     }
     JOINT RightCollar
     {
      OFFSET -2.923010 9.499495 0.000000
      CHANNELS 3 Yrotation Xrotation Zrotation
      JOINT RightShoulder
      {
       OFFSET -13.795216 0.000000 0.000000
       CHANNELS 3 Yrotation Xrotation Zrotation
       JOINT RightElbow
       {
        OFFSET -30.272209 0.000000 0.000000
        CHANNELS 3 Yrotation Xrotation Zrotation
        JOINT RightWrist
        {
         OFFSET -24.478199 0.000000 0.000000
         CHANNELS 3 Yrotation Xrotation Zrotation
         End Site
         {
          OFFSET -18.090752 0.000000 0.000000
         }
        }
       }
      }
     }
     JOINT LeftCollar
     {
      OFFSET 2.923010 9.499495 0.000000
      CHANNELS 3 Yrotation Xrotation Zrotation
      JOINT LeftShoulder
      {
       OFFSET 13.795216 0.000000 0.000000
       CHANNELS 3 Yrotation Xrotation Zrotation
       JOINT LeftElbow
       {
        OFFSET 30.272209 0.000000 0.000000
        CHANNELS 3 Yrotation Xrotation Zrotation
        JOINT LeftWrist
        {
         OFFSET 24.478199 0.000000 0.000000
         CHANNELS 3 Yrotation Xrotation Zrotation
         End Site
         {
          OFFSET 18.090752 0.000000 0.000000
         }
        }
       }
      }
     }
    }
   }
  }
 }
 JOINT RightHip
 {
  OFFSET -7.826875 0.019532 0.001973
  CHANNELS 3 Yrotation Xrotation Zrotation
  JOINT RightKnee
  {
   OFFSET 0.000000 -40.546152 -0.001885
   CHANNELS 3 Yrotation Xrotation Zrotation
   JOINT RightAnkle
   {
    OFFSET 0.000000 -39.417092 -0.003189
    CHANNELS 3 Yrotation Xrotation Zrotation
    JOINT RightToe
    {
     OFFSET 0.000000 -7.579396 17.243563
     CHANNELS 3 Yrotation Xrotation Zrotation
     End Site
     {
      OFFSET 0.000000 -1.500329 6.694466
     }
    }
   }
  }
 }
 JOINT LeftHip
 {
  OFFSET 7.826875 0.019532 0.001973
  CHANNELS 3 Yrotation Xrotation Zrotation
  JOINT LeftKnee
  {
   OFFSET 0.000000 -40.546152 -0.001885
   CHANNELS 3 Yrotation Xrotation Zrotation
   JOINT LeftAnkle
   {
    OFFSET 0.000000 -39.417092 -0.003189
    CHANNELS 3 Yrotation Xrotation Zrotation
    JOINT LeftToe
    {
     OFFSET 0.000000 -7.579396 17.243563
     CHANNELS 3 Yrotation Xrotation Zrotation
     End Site
     {
      OFFSET 0.000000 -1.500329 6.694466
     }
    }
   }
  }
 }
}
MOTION
Frames: 5
Frame Time: 0.008333
0.000000 87.345680 0.000000 0.000000 -5.767889 0.000000 0.000000 11.653876 0.000000 0.000000 -5.885988 0.000000 0.000000 -0.000000 0.000000 0.000000 -0.000000 0.000000 0.000000 12.528808 0.000000 0.000000 0.711711 0.000000 0.000000 -0.000000 0.000000 0.000000 -0.000000 0.000000 2.309063 -0.000000 0.000000 -2.309063 -0.000000 -0.000000 0.000000 -0.000000 0.000000 0.000000 0.000000 0.000000 -2.309063 0.000000 0.000000 2.309063 -0.000000 0.000000 0.000000 8.520374 0.000000 0.000000 1.905768 0.000000 -0.000000 -4.658254 0.000000 0.000000 -0.000000 0.000000 0.000000 8.520374 0.000000 0.000000 1.905768 0.000000 -0.000000 -4.658254 0.000000 0.000000 -0.000000 0.000000
27.353595 87.376302 -5.990590 44.211030 -6.077102 1.198415 2.701090 4.574283 -0.357014 1.536924 2.615385 -0.257413 1.919816 3.270236 -0.310864 1.536923 2.615386 -0.257413 3.533630 14.889660 -2.346688 4.293248 -10.007590 -3.304299 -7.370849 -3.183584 -2.552139 5.727125 -13.690126 84.317922 69.650367 -28.906030 31.767010 30.990520 -7.383647 -24.332216 -14.671568 -4.615611 0.439949 -10.272994 -21.619686 -92.658354 -26.132013 3.599568 -39.253582 -30.675116 -14.448509 18.027112 -3.386891 7.169214 -14.166623 0.295242 10.109036 0.893863 -2.668439 -9.361938 10.305535 -0.058752 -0.018516 -0.018685 9.698219 7.202146 11.900064 9.378664 1.898640 0.615491 -1.650401 -2.942289 -9.502852 0.014449 -0.123948 -0.014586
27.343274 87.373152 -5.968015 44.185992 -6.009532 1.191649 2.673279 4.560421 -0.351420 1.521446 2.606108 -0.257011 1.900470 3.258629 -0.310510 1.521446 2.606109 -0.257011 3.515220 14.869147 -2.377240 4.280867 -10.029073 -3.332684 -7.429209 -3.154390 -2.568483 5.392026 -13.641473 84.318161 70.562664 -29.069409 32.056003 30.404451 -7.480890 -24.437903 -14.601385 -4.567048 0.430729 -10.172820 -21.259480 -92.629705 -27.281220 3.231720 -40.194535 -30.040408 -14.188547 18.316177 -3.387708 7.081191 -14.151133 0.305547 10.145227 0.906440 -2.649701 -9.379034 10.293492 -0.060909 -0.006413 -0.026669 9.718208 7.122010 11.913708 9.383301 1.937313 0.629689 -1.649370 -2.958841 -9.529252 0.017618 -0.126267 -0.011100
27.333086 87.369212 -5.941297 44.172276 -5.937946 1.183743 2.644473 4.546019 -0.346787 1.505463 2.596725 -0.256348 1.880493 3.246887 -0.309833 1.505462 2.596726 -0.256348 3.508573 14.858257 -2.400855 4.279570 -10.040149 -3.356529 -7.496787 -3.125861 -2.589738 5.063371 -13.584986 84.307875 71.504755 -29.256308 32.364815 29.790037 -7.579203 -24.575390 -14.536292 -4.520287 0.427293 -10.038273 -20.878149 -92.652094 -28.451497 2.878108 -41.124409 -29.382091 -13.903978 18.645107 -3.395335 7.005339 -14.132265 0.311060 10.158606 0.917221 -2.635080 -9.392894 10.281699 -0.063798 0.009652 -0.033988 9.743023 7.038162 11.931811 9.385417 1.970371 0.642758 -1.662307 -2.973615 -9.559648 0.019834 -0.127508 -0.006783
27.324024 87.364633 -5.911303 44.166720 -5.868439 1.175989 2.615514 4.532745 -0.342602 1.489326 2.588404 -0.255206 1.860328 3.236471 -0.308554 1.489326 2.588404 -0.255206 3.512159 14.856155 -2.419702 4.288231 -10.041701 -3.377788 -7.575393 -3.098059 -2.620426 4.761012 -13.515920 84.290057 72.477453 -29.467953 32.668734 29.141725 -7.683001 -24.717100 -14.479666 -4.473608 0.426100 -9.859850 -20.485466 -92.714553 -29.642283 2.562793 -42.043066 -28.729506 -13.623487 19.005194 -3.401970 6.947357 -14.110384 0.316574 10.151609 0.924539 -2.631339 -9.404462 10.271994 -0.066715 0.028261 -0.040229 9.770181 6.958979 11.951997 9.383123 1.996587 0.655527 -1.681344 -2.986469 -9.592556 0.021029 -0.127751 -0.002679
